<svg width="53" height="53" viewBox="0 0 53 53" fill="none" xmlns="http://www.w3.org/2000/svg">
<path d="M33.125 4.41602C25.667 4.41915 19.2753 9.7483 17.9311 17.0841C24.3506 13.5713 32.4023 15.9275 35.9152 22.347C38.0839 26.3101 38.0839 31.1051 35.9152 35.0682C44.3098 33.5305 49.8683 25.4788 48.3305 17.0843C46.9859 9.74386 40.5875 4.41319 33.125 4.41602Z" fill="#9C9AFE" fill-opacity="0.34"/>
<path d="M15.4583 48.5833C21.5565 48.5833 26.5 43.6398 26.5 37.5417C26.5 31.4435 21.5565 26.5 15.4583 26.5C9.36019 26.5 4.41667 31.4435 4.41667 37.5417C4.41667 43.6398 9.36019 48.5833 15.4583 48.5833Z" fill="#9C9AFE"/>
<path d="M24.2917 15.459C17.4825 15.4597 11.7823 20.6212 11.1079 27.3968C16.7078 24.9909 23.1979 27.5801 25.6038 33.18C26.7988 35.9613 26.7988 39.1114 25.6038 41.8927C32.8853 41.1687 38.2012 34.6789 37.4772 27.3974C36.8034 20.6206 31.1019 15.4584 24.2917 15.459Z" fill="#9C9AFE" fill-opacity="0.68"/>
</svg>
