<svg width="309" height="223" viewBox="0 0 309 223" fill="none" xmlns="http://www.w3.org/2000/svg">
<path d="M23.7 222.17C19.85 222.17 16.4 221.545 13.35 220.295C10.3 219.045 7.85 217.195 6 214.745C4.2 212.295 3.25 209.345 3.15 205.895H16.8C17 207.845 17.675 209.345 18.825 210.395C19.975 211.395 21.475 211.895 23.325 211.895C25.225 211.895 26.725 211.47 27.825 210.62C28.925 209.72 29.475 208.495 29.475 206.945C29.475 205.645 29.025 204.57 28.125 203.72C27.275 202.87 26.2 202.17 24.9 201.62C23.65 201.07 21.85 200.445 19.5 199.745C16.1 198.695 13.325 197.645 11.175 196.595C9.025 195.545 7.175 193.995 5.625 191.945C4.075 189.895 3.3 187.22 3.3 183.92C3.3 179.02 5.075 175.195 8.625 172.445C12.175 169.645 16.8 168.245 22.5 168.245C28.3 168.245 32.975 169.645 36.525 172.445C40.075 175.195 41.975 179.045 42.225 183.995H28.35C28.25 182.295 27.625 180.97 26.475 180.02C25.325 179.02 23.85 178.52 22.05 178.52C20.5 178.52 19.25 178.945 18.3 179.795C17.35 180.595 16.875 181.77 16.875 183.32C16.875 185.02 17.675 186.345 19.275 187.295C20.875 188.245 23.375 189.27 26.775 190.37C30.175 191.52 32.925 192.62 35.025 193.67C37.175 194.72 39.025 196.245 40.575 198.245C42.125 200.245 42.9 202.82 42.9 205.97C42.9 208.97 42.125 211.695 40.575 214.145C39.075 216.595 36.875 218.545 33.975 219.995C31.075 221.445 27.65 222.17 23.7 222.17ZM112.368 179.795L101.043 221.645H86.8676L80.2676 194.495L73.4426 221.645H59.3426L47.9426 179.795H60.7676L66.6926 209.72L73.7426 179.795H87.3176L94.4426 209.57L100.293 179.795H112.368ZM125.208 175.445C122.958 175.445 121.108 174.795 119.658 173.495C118.258 172.145 117.558 170.495 117.558 168.545C117.558 166.545 118.258 164.895 119.658 163.595C121.108 162.245 122.958 161.57 125.208 161.57C127.408 161.57 129.208 162.245 130.608 163.595C132.058 164.895 132.783 166.545 132.783 168.545C132.783 170.495 132.058 172.145 130.608 173.495C129.208 174.795 127.408 175.445 125.208 175.445ZM131.583 179.795V221.645H118.758V179.795H131.583ZM163.378 190.445H156.478V221.645H143.653V190.445H139.003V179.795H143.653V178.595C143.653 173.445 145.128 169.545 148.078 166.895C151.028 164.195 155.353 162.845 161.053 162.845C162.003 162.845 162.703 162.87 163.153 162.92V173.795C160.703 173.645 158.978 173.995 157.978 174.845C156.978 175.695 156.478 177.22 156.478 179.42V179.795H163.378V190.445ZM194.229 210.77V221.645H187.704C183.054 221.645 179.429 220.52 176.829 218.27C174.229 215.97 172.929 212.245 172.929 207.095V190.445H167.829V179.795H172.929V169.595H185.754V179.795H194.154V190.445H185.754V207.245C185.754 208.495 186.054 209.395 186.654 209.945C187.254 210.495 188.254 210.77 189.654 210.77H194.229ZM237.148 168.995V179.27H215.698V190.37H231.748V200.345H215.698V221.645H202.873V168.995H237.148ZM251.838 175.445C249.588 175.445 247.738 174.795 246.288 173.495C244.888 172.145 244.188 170.495 244.188 168.545C244.188 166.545 244.888 164.895 246.288 163.595C247.738 162.245 249.588 161.57 251.838 161.57C254.038 161.57 255.838 162.245 257.238 163.595C258.688 164.895 259.413 166.545 259.413 168.545C259.413 170.495 258.688 172.145 257.238 173.495C255.838 174.795 254.038 175.445 251.838 175.445ZM258.213 179.795V221.645H245.388V179.795H258.213ZM293.757 221.645L285.732 210.02L278.982 221.645H265.107L278.907 200.27L264.732 179.795H279.132L287.157 191.345L293.907 179.795H307.782L293.757 200.87L308.157 221.645H293.757Z" fill="white"/>
<ellipse cx="154" cy="67.4982" rx="66" ry="66.6584" fill="white"/>
<path d="M153.024 107.226C147.172 107.226 141.928 106.276 137.292 104.376C132.656 102.476 128.932 99.6637 126.12 95.9397C123.384 92.2157 121.94 87.7317 121.788 82.4877H142.536C142.84 85.4517 143.866 87.7317 145.614 89.3277C147.362 90.8477 149.642 91.6077 152.454 91.6077C155.342 91.6077 157.622 90.9617 159.294 89.6697C160.966 88.3017 161.802 86.4397 161.802 84.0837C161.802 82.1077 161.118 80.4737 159.75 79.1817C158.458 77.8897 156.824 76.8257 154.848 75.9897C152.948 75.1537 150.212 74.2037 146.64 73.1397C141.472 71.5437 137.254 69.9477 133.986 68.3517C130.718 66.7557 127.906 64.3997 125.55 61.2837C123.194 58.1677 122.016 54.1017 122.016 49.0857C122.016 41.6377 124.714 35.8237 130.11 31.6437C135.506 27.3877 142.536 25.2597 151.2 25.2597C160.016 25.2597 167.122 27.3877 172.518 31.6437C177.914 35.8237 180.802 41.6757 181.182 49.1997H160.092C159.94 46.6157 158.99 44.6017 157.242 43.1577C155.494 41.6377 153.252 40.8777 150.516 40.8777C148.16 40.8777 146.26 41.5237 144.816 42.8157C143.372 44.0317 142.65 45.8177 142.65 48.1737C142.65 50.7577 143.866 52.7717 146.298 54.2157C148.73 55.6597 152.53 57.2177 157.698 58.8897C162.866 60.6377 167.046 62.3097 170.238 63.9057C173.506 65.5017 176.318 67.8197 178.674 70.8597C181.03 73.8997 182.208 77.8137 182.208 82.6017C182.208 87.1617 181.03 91.3037 178.674 95.0277C176.394 98.7517 173.05 101.716 168.642 103.92C164.234 106.124 159.028 107.226 153.024 107.226Z" fill="#615EE4"/>
</svg>
