<svg width="144" height="36" viewBox="0 0 144 36" fill="none" xmlns="http://www.w3.org/2000/svg">
<circle cx="18" cy="18" r="18" fill="#615EE4"/>
<path d="M17.9 26.175C16.6167 26.175 15.4667 25.9667 14.45 25.55C13.4333 25.1333 12.6167 24.5167 12 23.7C11.4 22.8833 11.0833 21.9 11.05 20.75H15.6C15.6667 21.4 15.8917 21.9 16.275 22.25C16.6583 22.5833 17.1583 22.75 17.775 22.75C18.4083 22.75 18.9083 22.6083 19.275 22.325C19.6417 22.025 19.825 21.6167 19.825 21.1C19.825 20.6667 19.675 20.3083 19.375 20.025C19.0917 19.7417 18.7333 19.5083 18.3 19.325C17.8833 19.1417 17.2833 18.9333 16.5 18.7C15.3667 18.35 14.4417 18 13.725 17.65C13.0083 17.3 12.3917 16.7833 11.875 16.1C11.3583 15.4167 11.1 14.525 11.1 13.425C11.1 11.7917 11.6917 10.5167 12.875 9.6C14.0583 8.66667 15.6 8.2 17.5 8.2C19.4333 8.2 20.9917 8.66667 22.175 9.6C23.3583 10.5167 23.9917 11.8 24.075 13.45H19.45C19.4167 12.8833 19.2083 12.4417 18.825 12.125C18.4417 11.7917 17.95 11.625 17.35 11.625C16.8333 11.625 16.4167 11.7667 16.1 12.05C15.7833 12.3167 15.625 12.7083 15.625 13.225C15.625 13.7917 15.8917 14.2333 16.425 14.55C16.9583 14.8667 17.7917 15.2083 18.925 15.575C20.0583 15.9583 20.975 16.325 21.675 16.675C22.3917 17.025 23.0083 17.5333 23.525 18.2C24.0417 18.8667 24.3 19.725 24.3 20.775C24.3 21.775 24.0417 22.6833 23.525 23.5C23.025 24.3167 22.2917 24.9667 21.325 25.45C20.3583 25.9333 19.2167 26.175 17.9 26.175Z" fill="white"/>
<path d="M55.32 25.14C54.2933 25.14 53.3733 24.9733 52.56 24.64C51.7467 24.3067 51.0933 23.8133 50.6 23.16C50.12 22.5067 49.8667 21.72 49.84 20.8H53.48C53.5333 21.32 53.7133 21.72 54.02 22C54.3267 22.2667 54.7267 22.4 55.22 22.4C55.7267 22.4 56.1267 22.2867 56.42 22.06C56.7133 21.82 56.86 21.4933 56.86 21.08C56.86 20.7333 56.74 20.4467 56.5 20.22C56.2733 19.9933 55.9867 19.8067 55.64 19.66C55.3067 19.5133 54.8267 19.3467 54.2 19.16C53.2933 18.88 52.5533 18.6 51.98 18.32C51.4067 18.04 50.9133 17.6267 50.5 17.08C50.0867 16.5333 49.88 15.82 49.88 14.94C49.88 13.6333 50.3533 12.6133 51.3 11.88C52.2467 11.1333 53.48 10.76 55 10.76C56.5467 10.76 57.7933 11.1333 58.74 11.88C59.6867 12.6133 60.1933 13.64 60.26 14.96H56.56C56.5333 14.5067 56.3667 14.1533 56.06 13.9C55.7533 13.6333 55.36 13.5 54.88 13.5C54.4667 13.5 54.1333 13.6133 53.88 13.84C53.6267 14.0533 53.5 14.3667 53.5 14.78C53.5 15.2333 53.7133 15.5867 54.14 15.84C54.5667 16.0933 55.2333 16.3667 56.14 16.66C57.0467 16.9667 57.78 17.26 58.34 17.54C58.9133 17.82 59.4067 18.2267 59.82 18.76C60.2333 19.2933 60.44 19.98 60.44 20.82C60.44 21.62 60.2333 22.3467 59.82 23C59.42 23.6533 58.8333 24.1733 58.06 24.56C57.2867 24.9467 56.3733 25.14 55.32 25.14ZM80.0647 13.84L77.0447 25H73.2647L71.5047 17.76L69.6847 25H65.9247L62.8847 13.84H66.3047L67.8847 21.82L69.7647 13.84H73.3847L75.2847 21.78L76.8447 13.84H80.0647ZM84.5889 12.68C83.9889 12.68 83.4956 12.5067 83.1089 12.16C82.7356 11.8 82.5489 11.36 82.5489 10.84C82.5489 10.3067 82.7356 9.86667 83.1089 9.52C83.4956 9.16 83.9889 8.98 84.5889 8.98C85.1756 8.98 85.6556 9.16 86.0289 9.52C86.4156 9.86667 86.6089 10.3067 86.6089 10.84C86.6089 11.36 86.4156 11.8 86.0289 12.16C85.6556 12.5067 85.1756 12.68 84.5889 12.68ZM86.2889 13.84V25H82.8689V13.84H86.2889ZM95.8673 16.68H94.0273V25H90.6073V16.68H89.3673V13.84H90.6073V13.52C90.6073 12.1467 91.0007 11.1067 91.7873 10.4C92.574 9.68 93.7273 9.32 95.2473 9.32C95.5007 9.32 95.6873 9.32667 95.8073 9.34V12.24C95.154 12.2 94.694 12.2933 94.4273 12.52C94.1607 12.7467 94.0273 13.1533 94.0273 13.74V13.84H95.8673V16.68ZM105.194 22.1V25H103.454C102.214 25 101.248 24.7 100.554 24.1C99.861 23.4867 99.5144 22.4933 99.5144 21.12V16.68H98.1544V13.84H99.5144V11.12H102.934V13.84H105.174V16.68H102.934V21.16C102.934 21.4933 103.014 21.7333 103.174 21.88C103.334 22.0267 103.601 22.1 103.974 22.1H105.194ZM117.739 10.96V13.7H112.019V16.66H116.299V19.32H112.019V25H108.599V10.96H117.739ZM122.757 12.68C122.157 12.68 121.664 12.5067 121.277 12.16C120.904 11.8 120.717 11.36 120.717 10.84C120.717 10.3067 120.904 9.86667 121.277 9.52C121.664 9.16 122.157 8.98 122.757 8.98C123.344 8.98 123.824 9.16 124.197 9.52C124.584 9.86667 124.777 10.3067 124.777 10.84C124.777 11.36 124.584 11.8 124.197 12.16C123.824 12.5067 123.344 12.68 122.757 12.68ZM124.457 13.84V25H121.037V13.84H124.457ZM135.035 25L132.895 21.9L131.095 25H127.395L131.075 19.3L127.295 13.84H131.135L133.275 16.92L135.075 13.84H138.775L135.035 19.46L138.875 25H135.035Z" fill="#2D2F30"/>
</svg>
