<svg width="53" height="53" viewBox="0 0 53 53" fill="none" xmlns="http://www.w3.org/2000/svg">
<path d="M39.1682 32.29L33.8108 37.216C31.0561 39.6175 27.8195 41.4019 24.3184 42.4495L25.7398 49.0815C25.8125 49.4202 25.9637 49.737 26.1813 50.0064C26.399 50.2758 26.6769 50.4903 26.9927 50.6325C27.3085 50.7747 27.6533 50.8406 27.9993 50.825C28.3452 50.8094 28.6827 50.7127 28.9844 50.5426L37.6085 45.6784C38.8223 44.9409 39.7705 43.8369 40.3162 42.5257C40.862 41.2144 40.9771 39.7637 40.645 38.3828L39.1682 32.29ZM16.0449 19.3801L20.6574 13.9037L14.9051 12.5158C13.5067 12.0282 11.979 12.063 10.6043 12.614C9.22959 13.165 8.10069 14.1949 7.42614 15.5133L2.56739 24.1256C2.39714 24.4273 2.30025 24.7648 2.28456 25.1108C2.26886 25.4568 2.33479 25.8017 2.47702 26.1175C2.61925 26.4334 2.83379 26.7113 3.1033 26.9289C3.37282 27.1465 3.68974 27.2976 4.02846 27.3701L10.8141 28.8247C11.9391 25.3716 13.7146 22.1657 16.0449 19.3801ZM36.9536 19.4693C37.6088 19.4693 38.2492 19.275 38.794 18.911C39.3387 18.547 39.7633 18.0297 40.014 17.4244C40.2647 16.8191 40.3303 16.1531 40.2025 15.5105C40.0747 14.868 39.7592 14.2777 39.2959 13.8145C38.8327 13.3512 38.2424 13.0357 37.5999 12.9079C36.9573 12.7801 36.2913 12.8457 35.686 13.0964C35.0807 13.3471 34.5634 13.7717 34.1994 14.3164C33.8354 14.8612 33.6411 15.5016 33.6411 16.1568C33.6415 17.0352 33.9906 17.8776 34.6117 18.4987C35.2328 19.1198 36.0752 19.4689 36.9536 19.4693Z" fill="#9C9AFE"/>
<path d="M49.9107 4.55297C49.8111 4.17473 49.6129 3.8297 49.3363 3.55312C49.0597 3.27654 48.7147 3.07831 48.3364 2.97867C43.8063 1.80111 39.0357 1.92738 34.5743 3.34293C30.1129 4.75848 26.1421 7.40571 23.1196 10.9796L16.0449 19.3795C12.5107 23.5948 10.2687 28.7408 9.58816 34.1994C9.54452 34.5349 9.5785 34.8759 9.68749 35.1962C9.79648 35.5164 9.97757 35.8073 10.2168 36.0465L17.0628 42.8926C17.2678 43.0977 17.5112 43.2605 17.7791 43.3715C18.047 43.4825 18.3341 43.5396 18.6241 43.5396C18.6878 43.5396 18.7514 43.5364 18.8161 43.531C24.3585 43.073 29.6108 40.8608 33.8107 37.2155L41.9 29.7775C45.4865 26.7628 48.1434 22.7918 49.5616 18.3263C50.9797 13.8609 51.1008 9.08455 49.9107 4.55297ZM36.9536 19.4685C36.2985 19.4685 35.658 19.2743 35.1133 18.9103C34.5685 18.5463 34.144 18.029 33.8933 17.4237C33.6425 16.8184 33.5769 16.1524 33.7048 15.5098C33.8326 14.8672 34.1481 14.277 34.6113 13.8137C35.0746 13.3505 35.6648 13.035 36.3074 12.9072C36.9499 12.7794 37.616 12.845 38.2213 13.0957C38.8265 13.3464 39.3439 13.771 39.7079 14.3157C40.0718 14.8604 40.2661 15.5009 40.2661 16.156C40.2658 17.0345 39.9167 17.8768 39.2956 18.498C38.6744 19.1191 37.832 19.4682 36.9536 19.4685Z" fill="#9C9AFE" fill-opacity="0.34"/>
</svg>
