<svg width="53" height="53" viewBox="0 0 53 53" fill="none" xmlns="http://www.w3.org/2000/svg">
<path d="M13.25 36.4369C11.7213 36.4369 10.2269 35.9835 8.95589 35.1343C7.68483 34.285 6.69417 33.0778 6.10916 31.6655C5.52416 30.2532 5.3711 28.6991 5.66933 27.1998C5.96756 25.7005 6.70369 24.3233 7.78464 23.2423C8.86558 22.1614 10.2428 21.4253 11.7421 21.127C13.2414 20.8288 14.7955 20.9819 16.2078 21.5669C17.6201 22.1519 18.8273 23.1425 19.6765 24.4136C20.5258 25.6846 20.9791 27.179 20.9791 28.7077C20.9767 30.7568 20.1616 32.7213 18.7126 34.1703C17.2636 35.6193 15.2991 36.4344 13.25 36.4369Z" fill="#9C9AFE" fill-opacity="0.9"/>
<path d="M19.0806 33.7246C18.365 34.5741 17.4724 35.2571 16.4653 35.7256C15.4581 36.1941 14.3608 36.4368 13.25 36.4368C12.1392 36.4368 11.0418 36.1941 10.0347 35.7256C9.02757 35.2571 8.13498 34.5741 7.41941 33.7246C5.82938 34.7104 4.51663 36.0849 3.60491 37.7185C2.69319 39.3521 2.21255 41.191 2.20831 43.0619C2.20831 43.6475 2.44098 44.2092 2.85512 44.6234C3.26926 45.0375 3.83096 45.2702 4.41665 45.2702H22.0833C22.669 45.2702 23.2307 45.0375 23.6448 44.6234C24.059 44.2092 24.2916 43.6475 24.2916 43.0619C24.2874 41.191 23.8068 39.3521 22.8951 37.7185C21.9833 36.0849 20.6706 34.7104 19.0806 33.7246ZM39.75 36.4369C38.2213 36.4369 36.7269 35.9835 35.4559 35.1343C34.1848 34.285 33.1942 33.0778 32.6092 31.6655C32.0242 30.2532 31.8711 28.6991 32.1693 27.1998C32.4676 25.7005 33.2037 24.3233 34.2846 23.2423C35.3656 22.1614 36.7428 21.4253 38.2421 21.127C39.7414 20.8288 41.2955 20.9819 42.7078 21.5669C44.1201 22.1519 45.3273 23.1425 46.1765 24.4136C47.0258 25.6846 47.4791 27.179 47.4791 28.7077C47.4767 30.7568 46.6616 32.7213 45.2126 34.1703C43.7636 35.6193 41.7991 36.4344 39.75 36.4369Z" fill="#9C9AFE" fill-opacity="0.34"/>
<path d="M45.5806 33.7246C44.865 34.5742 43.9724 35.2571 42.9653 35.7256C41.9581 36.1941 40.8608 36.4369 39.75 36.4369C38.6392 36.4369 37.5418 36.1941 36.5347 35.7256C35.5276 35.2571 34.635 34.5742 33.9194 33.7246C32.3294 34.7104 31.0166 36.0849 30.1049 37.7185C29.1932 39.3522 28.7126 41.1911 28.7083 43.0619C28.7083 43.6476 28.941 44.2093 29.3551 44.6234C29.7693 45.0376 30.331 45.2702 30.9166 45.2702H48.5833C49.169 45.2702 49.7307 45.0376 50.1448 44.6234C50.559 44.2093 50.7916 43.6476 50.7916 43.0619C50.7874 41.1911 50.3068 39.3522 49.3951 37.7185C48.4833 36.0849 47.1706 34.7104 45.5806 33.7246Z" fill="#9C9AFE"/>
<path d="M37.9988 12.7919L33.5821 8.37525C33.1668 7.96735 32.6072 7.73998 32.025 7.74262C31.4428 7.74526 30.8853 7.97768 30.4736 8.38933C30.062 8.80098 29.8296 9.35854 29.8269 9.94069C29.8243 10.5228 30.0517 11.0825 30.4596 11.4978L31.1066 12.1449H21.8936L22.5406 11.4978C22.9504 11.0828 23.1794 10.5226 23.1775 9.93938C23.1757 9.35617 22.9432 8.79737 22.5308 8.38498C22.1183 7.9726 21.5595 7.74011 20.9763 7.73829C20.3931 7.73647 19.8329 7.96545 19.4179 8.37525L15.0012 12.7919C14.7961 12.9969 14.6334 13.2403 14.5224 13.5082C14.4114 13.7761 14.3542 14.0633 14.3542 14.3533C14.3542 14.6433 14.4114 14.9304 14.5224 15.1983C14.6334 15.4662 14.7961 15.7096 15.0012 15.9146L19.4179 20.3313C19.8329 20.7411 20.3931 20.97 20.9764 20.9682C21.5596 20.9664 22.1184 20.7338 22.5308 20.3214C22.9431 19.909 23.1756 19.3502 23.1774 18.767C23.1793 18.1838 22.9503 17.6236 22.5405 17.2086L21.8934 16.5615H31.1063L30.4593 17.2086C30.0452 17.6227 29.8126 18.1843 29.8126 18.77C29.8127 19.3556 30.0453 19.9172 30.4594 20.3313C30.8735 20.7454 31.4352 20.978 32.0208 20.978C32.6064 20.9779 33.1681 20.7453 33.5821 20.3312L37.9988 15.9145C38.2039 15.7095 38.3666 15.4661 38.4776 15.1982C38.5886 14.9303 38.6457 14.6432 38.6457 14.3532C38.6457 14.0632 38.5886 13.7761 38.4776 13.5082C38.3666 13.2403 38.2039 12.9969 37.9988 12.7919Z" fill="#9C9AFE"/>
</svg>
